<svg width="50" height="50" viewBox="0 0 50 50" fill="none" xmlns="http://www.w3.org/2000/svg">
<path d="M36.875 29.9C37.5 30.225 37.9 30.4 38.025 30.65C38.175 30.925 38.125 32.175 37.5 33.6C37 35 34.4 36.35 33.25 36.4C32.1 36.45 32.075 37.3 25.85 34.575C19.625 31.85 15.875 25.2 15.575 24.775C15.275 24.35 13.175 21.325 13.275 18.25C13.4 15.2 15 13.75 15.65 13.15C16.25 12.5 16.925 12.425 17.35 12.5H18.525C18.9 12.5 19.425 12.35 19.9 13.625L21.625 18.3C21.775 18.625 21.875 19 21.65 19.4L20.975 20.425L20 21.475C19.7 21.775 19.35 22.1 19.7 22.725C20 23.375 21.25 25.45 23 27.175C25.275 29.375 27.275 30.1 27.875 30.425C28.475 30.775 28.85 30.725 29.225 30.325L31.25 27.975C31.725 27.35 32.125 27.5 32.7 27.7L36.875 29.9ZM25 0C28.283 0 31.5339 0.646644 34.5671 1.90301C37.6002 3.15938 40.3562 5.00087 42.6777 7.32233C44.9991 9.6438 46.8406 12.3998 48.097 15.4329C49.3534 18.4661 50 21.717 50 25C50 31.6304 47.3661 37.9893 42.6777 42.6777C37.9893 47.3661 31.6304 50 25 50C20.075 50 15.5 48.575 11.625 46.125L0 50L3.875 38.375C1.425 34.5 0 29.925 0 25C0 18.3696 2.63392 12.0107 7.32233 7.32233C12.0107 2.63392 18.3696 0 25 0ZM25 5C19.6957 5 14.6086 7.10714 10.8579 10.8579C7.10714 14.6086 5 19.6957 5 25C5 29.3 6.35 33.275 8.65 36.525L6.25 43.75L13.475 41.35C16.725 43.65 20.7 45 25 45C30.3043 45 35.3914 42.8929 39.1421 39.1421C42.8929 35.3914 45 30.3043 45 25C45 19.6957 42.8929 14.6086 39.1421 10.8579C35.3914 7.10714 30.3043 5 25 5Z" fill="white"/>
</svg>
