<svg width="25" height="25" viewBox="0 0 25 25" fill="none" xmlns="http://www.w3.org/2000/svg">
<path d="M18.4375 14.95C18.75 15.1125 18.95 15.2 19.0125 15.325C19.0875 15.4625 19.0625 16.0875 18.75 16.8C18.5 17.5 17.2 18.175 16.625 18.2C16.05 18.225 16.0375 18.65 12.925 17.2875C9.8125 15.925 7.9375 12.6 7.7875 12.3875C7.6375 12.175 6.5875 10.6625 6.6375 9.125C6.7 7.6 7.5 6.875 7.825 6.575C8.125 6.25 8.4625 6.2125 8.675 6.25H9.2625C9.45 6.25 9.7125 6.175 9.95 6.8125L10.8125 9.15C10.8875 9.3125 10.9375 9.5 10.825 9.7L10.4875 10.2125L10 10.7375C9.85 10.8875 9.675 11.05 9.85 11.3625C10 11.6875 10.625 12.725 11.5 13.5875C12.6375 14.6875 13.6375 15.05 13.9375 15.2125C14.2375 15.3875 14.425 15.3625 14.6125 15.1625L15.625 13.9875C15.8625 13.675 16.0625 13.75 16.35 13.85L18.4375 14.95ZM12.5 0C14.1415 0 15.767 0.323322 17.2835 0.951506C18.8001 1.57969 20.1781 2.50043 21.3388 3.66117C22.4996 4.8219 23.4203 6.19989 24.0485 7.71646C24.6767 9.23303 25 10.8585 25 12.5C25 15.8152 23.683 18.9946 21.3388 21.3388C18.9946 23.683 15.8152 25 12.5 25C10.0375 25 7.75 24.2875 5.8125 23.0625L0 25L1.9375 19.1875C0.7125 17.25 0 14.9625 0 12.5C0 9.18479 1.31696 6.00537 3.66117 3.66117C6.00537 1.31696 9.18479 0 12.5 0ZM12.5 2.5C9.84784 2.5 7.3043 3.55357 5.42893 5.42893C3.55357 7.3043 2.5 9.84784 2.5 12.5C2.5 14.65 3.175 16.6375 4.325 18.2625L3.125 21.875L6.7375 20.675C8.3625 21.825 10.35 22.5 12.5 22.5C15.1522 22.5 17.6957 21.4464 19.5711 19.5711C21.4464 17.6957 22.5 15.1522 22.5 12.5C22.5 9.84784 21.4464 7.3043 19.5711 5.42893C17.6957 3.55357 15.1522 2.5 12.5 2.5Z" fill="#0D2130"/>
</svg>
